<svg width="500" zoomAndPan="magnify" viewBox="0 0 375 374.999991" height="500" preserveAspectRatio="xMidYMid meet" version="1.0"><defs><g/></defs><g fill="#000000" fill-opacity="1"><g transform="translate(108.007296, 195.749987)"><g><path d="M 1.566406 0.0273438 L 3.480469 0.0273438 L 3.480469 -16.917969 L 1.566406 -16.917969 Z M 1.566406 0.0273438 "/></g></g></g><g fill="#000000" fill-opacity="1"><g transform="translate(118.287333, 195.749987)"><g><path d="M 14.113281 0.0273438 L 16.191406 0.0273438 L 8.769531 -17.242188 L 8.636719 -17.242188 L 0.945312 0.0273438 L 1.539062 0.0273438 L 4.585938 -6.773438 L 11.171875 -6.773438 Z M 4.777344 -7.230469 L 7.933594 -14.328125 L 10.984375 -7.230469 Z M 4.777344 -7.230469 "/></g></g></g><g fill="#000000" fill-opacity="1"><g transform="translate(140.544975, 195.749987)"><g><path d="M 18.484375 -17.242188 L 18.429688 -17.242188 L 10.847656 -2.886719 L 3.375 -17.242188 L 3.292969 -17.242188 L 0.972656 0.0273438 L 1.402344 0.0273438 L 3.210938 -13.359375 L 9.929688 -0.433594 L 10.039062 -0.433594 L 16.972656 -13.574219 L 18.566406 0.0273438 L 20.507812 0.0273438 Z M 18.484375 -17.242188 "/></g></g></g><g fill="#000000" fill-opacity="1"><g transform="translate(167.25375, 195.749987)"><g><path d="M 7.878906 -9.011719 C 9.742188 -9.5 11.847656 -10.632812 11.847656 -13.304688 C 11.847656 -16.730469 7.636719 -16.917969 6.421875 -16.917969 L 1.296875 -16.917969 L 1.296875 0.0273438 L 5.9375 0.0273438 C 6.664062 0.0273438 12.441406 -0.0820312 12.441406 -4.667969 C 12.441406 -7.609375 10.199219 -8.714844 7.878906 -9.011719 Z M 5.398438 -16.488281 C 7.988281 -16.488281 9.796875 -15.652344 9.796875 -13.007812 C 9.796875 -10.363281 7.851562 -9.09375 4.695312 -9.09375 L 3.210938 -9.09375 L 3.210938 -16.488281 Z M 4.695312 -0.40625 L 3.210938 -0.40625 L 3.210938 -8.664062 L 5.398438 -8.664062 C 9.5 -8.664062 10.390625 -6.53125 10.390625 -4.371094 C 10.390625 -1.1875 7.796875 -0.40625 4.695312 -0.40625 Z M 4.695312 -0.40625 "/></g></g></g><g fill="#000000" fill-opacity="1"><g transform="translate(185.869549, 195.749987)"><g><path d="M 13.167969 0.0273438 L 6.828125 -7.960938 C 8.824219 -8.230469 11.847656 -9.203125 11.847656 -12.683594 C 11.847656 -16.40625 7.796875 -16.917969 6.421875 -16.917969 C 5.101562 -16.917969 1.296875 -16.917969 1.296875 -16.917969 L 1.296875 0.0273438 L 3.210938 0.0273438 L 3.210938 -7.851562 L 4.453125 -7.851562 L 10.714844 0.0273438 Z M 3.210938 -16.488281 L 5.398438 -16.488281 C 8.148438 -16.488281 9.796875 -15.355469 9.796875 -12.386719 C 9.796875 -9.363281 7.851562 -8.285156 4.695312 -8.285156 L 3.210938 -8.285156 Z M 3.210938 -16.488281 "/></g></g></g><g fill="#000000" fill-opacity="1"><g transform="translate(205.05186, 195.749987)"><g><path d="M 14.113281 0.0273438 L 16.191406 0.0273438 L 8.769531 -17.242188 L 8.636719 -17.242188 L 0.945312 0.0273438 L 1.539062 0.0273438 L 4.585938 -6.773438 L 11.171875 -6.773438 Z M 4.777344 -7.230469 L 7.933594 -14.328125 L 10.984375 -7.230469 Z M 4.777344 -7.230469 "/></g></g></g><g fill="#000000" fill-opacity="1"><g transform="translate(227.309495, 195.749987)"><g><path d="M 15.058594 -16.917969 L 14.625 -16.917969 L 14.625 -2.5625 L 1.347656 -17.242188 L 1.296875 -17.242188 L 1.296875 0.0273438 L 1.726562 0.0273438 L 1.726562 -14.167969 L 14.976562 0.511719 L 15.058594 0.511719 Z M 15.058594 -16.917969 "/></g></g></g><g fill="#000000" fill-opacity="1"><g transform="translate(248.892731, 195.749987)"><g><path d="M 8.285156 -16.917969 L 1.296875 -16.917969 L 1.296875 0.0273438 L 7.015625 0.0273438 C 7.824219 0.0273438 16.867188 0.433594 16.867188 -8.714844 C 16.867188 -16.109375 11.414062 -16.917969 8.285156 -16.917969 Z M 6.960938 -0.40625 L 3.210938 -0.40625 L 3.210938 -16.460938 L 7.257812 -16.460938 C 10.335938 -16.460938 14.867188 -15.328125 14.867188 -8.714844 C 14.867188 -2.132812 10.660156 -0.40625 6.960938 -0.40625 Z M 6.960938 -0.40625 "/></g></g></g><g fill="#000000" fill-opacity="1"><g transform="translate(150.640579, 216.951286)"><g><path d="M 0.5625 -0.640625 L 1.75 -0.640625 L 1.75 -11.359375 L 0.625 -11.359375 L 0.625 -12 L 2.421875 -12 L 2.421875 -5.390625 C 2.410156 -5.265625 2.398438 -5.132812 2.390625 -5 C 2.378906 -4.863281 2.367188 -4.734375 2.359375 -4.609375 C 2.429688 -4.796875 2.539062 -4.976562 2.6875 -5.15625 C 2.84375 -5.34375 3.03125 -5.507812 3.25 -5.65625 C 3.476562 -5.800781 3.734375 -5.914062 4.015625 -6 C 4.296875 -6.082031 4.585938 -6.125 4.890625 -6.125 C 5.328125 -6.125 5.738281 -6.039062 6.125 -5.875 C 6.507812 -5.707031 6.84375 -5.484375 7.125 -5.203125 C 7.40625 -4.921875 7.628906 -4.585938 7.796875 -4.203125 C 7.960938 -3.828125 8.046875 -3.429688 8.046875 -3.015625 C 8.046875 -2.578125 7.960938 -2.164062 7.796875 -1.78125 C 7.628906 -1.40625 7.40625 -1.078125 7.125 -0.796875 C 6.84375 -0.523438 6.507812 -0.304688 6.125 -0.140625 C 5.738281 0.0234375 5.328125 0.109375 4.890625 0.109375 C 4.578125 0.109375 4.273438 0.0664062 3.984375 -0.015625 C 3.703125 -0.0976562 3.453125 -0.207031 3.234375 -0.34375 C 3.015625 -0.488281 2.828125 -0.648438 2.671875 -0.828125 C 2.523438 -1.015625 2.414062 -1.195312 2.34375 -1.375 C 2.34375 -1.257812 2.34375 -1.140625 2.34375 -1.015625 C 2.351562 -0.890625 2.359375 -0.765625 2.359375 -0.640625 L 2.359375 0 L 0.5625 0 Z M 7.375 -3.015625 C 7.375 -3.347656 7.304688 -3.664062 7.171875 -3.96875 C 7.046875 -4.28125 6.875 -4.546875 6.65625 -4.765625 C 6.445312 -4.992188 6.1875 -5.171875 5.875 -5.296875 C 5.570312 -5.421875 5.242188 -5.484375 4.890625 -5.484375 C 4.546875 -5.484375 4.222656 -5.421875 3.921875 -5.296875 C 3.617188 -5.171875 3.351562 -4.992188 3.125 -4.765625 C 2.90625 -4.546875 2.734375 -4.28125 2.609375 -3.96875 C 2.484375 -3.664062 2.421875 -3.347656 2.421875 -3.015625 C 2.421875 -2.671875 2.484375 -2.347656 2.609375 -2.046875 C 2.734375 -1.742188 2.90625 -1.476562 3.125 -1.25 C 3.351562 -1.03125 3.617188 -0.859375 3.921875 -0.734375 C 4.222656 -0.609375 4.546875 -0.546875 4.890625 -0.546875 C 5.242188 -0.546875 5.570312 -0.609375 5.875 -0.734375 C 6.1875 -0.859375 6.445312 -1.03125 6.65625 -1.25 C 6.875 -1.476562 7.046875 -1.742188 7.171875 -2.046875 C 7.304688 -2.347656 7.375 -2.671875 7.375 -3.015625 Z M 7.375 -3.015625 "/></g></g></g><g fill="#000000" fill-opacity="1"><g transform="translate(159.246513, 216.951286)"><g><path d="M 0.5625 -0.640625 L 1.75 -0.640625 L 1.75 -11.359375 L 0.609375 -11.359375 L 0.609375 -12 L 2.40625 -12 L 2.40625 -0.640625 L 3.640625 -0.640625 L 3.640625 0 L 0.5625 0 Z M 0.5625 -0.640625 "/></g></g></g><g fill="#000000" fill-opacity="1"><g transform="translate(163.453498, 216.951286)"><g><path d="M 0.578125 -3.015625 C 0.578125 -3.429688 0.660156 -3.832031 0.828125 -4.21875 C 0.992188 -4.601562 1.21875 -4.9375 1.5 -5.21875 C 1.78125 -5.5 2.109375 -5.722656 2.484375 -5.890625 C 2.867188 -6.054688 3.28125 -6.140625 3.71875 -6.140625 C 4.15625 -6.140625 4.5625 -6.054688 4.9375 -5.890625 C 5.320312 -5.722656 5.660156 -5.5 5.953125 -5.21875 C 6.242188 -4.9375 6.46875 -4.601562 6.625 -4.21875 C 6.789062 -3.832031 6.875 -3.429688 6.875 -3.015625 C 6.875 -2.578125 6.789062 -2.164062 6.625 -1.78125 C 6.46875 -1.40625 6.242188 -1.078125 5.953125 -0.796875 C 5.660156 -0.523438 5.320312 -0.304688 4.9375 -0.140625 C 4.5625 0.0234375 4.15625 0.109375 3.71875 0.109375 C 3.28125 0.109375 2.867188 0.0234375 2.484375 -0.140625 C 2.109375 -0.304688 1.78125 -0.523438 1.5 -0.796875 C 1.21875 -1.078125 0.992188 -1.40625 0.828125 -1.78125 C 0.660156 -2.164062 0.578125 -2.578125 0.578125 -3.015625 Z M 1.234375 -3.015625 C 1.234375 -2.671875 1.296875 -2.347656 1.421875 -2.046875 C 1.546875 -1.742188 1.71875 -1.476562 1.9375 -1.25 C 2.164062 -1.03125 2.429688 -0.859375 2.734375 -0.734375 C 3.035156 -0.609375 3.359375 -0.546875 3.703125 -0.546875 C 4.035156 -0.546875 4.351562 -0.609375 4.65625 -0.734375 C 4.96875 -0.859375 5.234375 -1.03125 5.453125 -1.25 C 5.679688 -1.476562 5.859375 -1.742188 5.984375 -2.046875 C 6.109375 -2.347656 6.171875 -2.671875 6.171875 -3.015625 C 6.171875 -3.347656 6.109375 -3.664062 5.984375 -3.96875 C 5.859375 -4.269531 5.679688 -4.53125 5.453125 -4.75 C 5.234375 -4.976562 4.96875 -5.15625 4.65625 -5.28125 C 4.351562 -5.414062 4.035156 -5.484375 3.703125 -5.484375 C 3.359375 -5.484375 3.035156 -5.414062 2.734375 -5.28125 C 2.429688 -5.15625 2.164062 -4.976562 1.9375 -4.75 C 1.71875 -4.53125 1.546875 -4.269531 1.421875 -3.96875 C 1.296875 -3.664062 1.234375 -3.347656 1.234375 -3.015625 Z M 1.234375 -3.015625 "/></g></g></g><g fill="#000000" fill-opacity="1"><g transform="translate(170.891711, 216.951286)"><g><path d="M 6.3125 -6 L 8.0625 -6 L 8.0625 -5.359375 L 6.859375 -5.359375 L 6.859375 0.5625 C 6.859375 1.082031 6.78125 1.550781 6.625 1.96875 C 6.46875 2.394531 6.25 2.753906 5.96875 3.046875 C 5.6875 3.347656 5.363281 3.578125 5 3.734375 C 4.632812 3.898438 4.238281 3.988281 3.8125 4 C 3.363281 3.988281 2.910156 3.898438 2.453125 3.734375 C 2.003906 3.578125 1.632812 3.347656 1.34375 3.046875 L 1.828125 2.546875 C 2.054688 2.796875 2.351562 2.984375 2.71875 3.109375 C 3.082031 3.242188 3.441406 3.3125 3.796875 3.3125 C 4.117188 3.3125 4.425781 3.242188 4.71875 3.109375 C 5.019531 2.972656 5.273438 2.78125 5.484375 2.53125 C 5.703125 2.289062 5.875 2 6 1.65625 C 6.125 1.3125 6.1875 0.929688 6.1875 0.515625 L 6.1875 -0.640625 C 6.195312 -0.753906 6.207031 -0.875 6.21875 -1 C 6.226562 -1.125 6.238281 -1.242188 6.25 -1.359375 C 6.164062 -1.171875 6.046875 -0.988281 5.890625 -0.8125 C 5.734375 -0.632812 5.546875 -0.476562 5.328125 -0.34375 C 5.117188 -0.207031 4.875 -0.0976562 4.59375 -0.015625 C 4.3125 0.0664062 4.019531 0.109375 3.71875 0.109375 C 3.28125 0.109375 2.867188 0.0234375 2.484375 -0.140625 C 2.097656 -0.304688 1.765625 -0.523438 1.484375 -0.796875 C 1.203125 -1.078125 0.976562 -1.40625 0.8125 -1.78125 C 0.644531 -2.164062 0.5625 -2.578125 0.5625 -3.015625 C 0.5625 -3.429688 0.644531 -3.828125 0.8125 -4.203125 C 0.976562 -4.585938 1.203125 -4.921875 1.484375 -5.203125 C 1.765625 -5.484375 2.097656 -5.707031 2.484375 -5.875 C 2.867188 -6.039062 3.28125 -6.125 3.71875 -6.125 C 4.019531 -6.125 4.3125 -6.078125 4.59375 -5.984375 C 4.875 -5.898438 5.125 -5.785156 5.34375 -5.640625 C 5.570312 -5.492188 5.757812 -5.328125 5.90625 -5.140625 C 6.0625 -4.953125 6.175781 -4.769531 6.25 -4.59375 C 6.25 -4.820312 6.253906 -5.050781 6.265625 -5.28125 C 6.285156 -5.519531 6.300781 -5.757812 6.3125 -6 Z M 1.234375 -3.015625 C 1.234375 -2.671875 1.296875 -2.347656 1.421875 -2.046875 C 1.546875 -1.742188 1.71875 -1.476562 1.9375 -1.25 C 2.15625 -1.03125 2.414062 -0.859375 2.71875 -0.734375 C 3.03125 -0.609375 3.363281 -0.546875 3.71875 -0.546875 C 4.0625 -0.546875 4.382812 -0.609375 4.6875 -0.734375 C 4.988281 -0.859375 5.25 -1.03125 5.46875 -1.25 C 5.695312 -1.476562 5.875 -1.742188 6 -2.046875 C 6.125 -2.347656 6.1875 -2.671875 6.1875 -3.015625 C 6.1875 -3.347656 6.125 -3.664062 6 -3.96875 C 5.875 -4.28125 5.695312 -4.546875 5.46875 -4.765625 C 5.25 -4.992188 4.988281 -5.171875 4.6875 -5.296875 C 4.382812 -5.421875 4.0625 -5.484375 3.71875 -5.484375 C 3.363281 -5.484375 3.03125 -5.421875 2.71875 -5.296875 C 2.414062 -5.171875 2.15625 -4.992188 1.9375 -4.765625 C 1.71875 -4.546875 1.546875 -4.28125 1.421875 -3.96875 C 1.296875 -3.664062 1.234375 -3.347656 1.234375 -3.015625 Z M 1.234375 -3.015625 "/></g></g></g><g fill="#000000" fill-opacity="1"><g transform="translate(179.513643, 216.951286)"><g/></g></g><g fill="#000000" fill-opacity="1"><g transform="translate(184.312494, 216.951286)"><g><path d="M 0.5625 -0.640625 L 1.75 -0.640625 L 1.75 -11.359375 L 0.625 -11.359375 L 0.625 -12 L 2.421875 -12 L 2.421875 -5.390625 C 2.410156 -5.265625 2.398438 -5.132812 2.390625 -5 C 2.378906 -4.863281 2.367188 -4.734375 2.359375 -4.609375 C 2.429688 -4.796875 2.539062 -4.976562 2.6875 -5.15625 C 2.84375 -5.34375 3.03125 -5.507812 3.25 -5.65625 C 3.476562 -5.800781 3.734375 -5.914062 4.015625 -6 C 4.296875 -6.082031 4.585938 -6.125 4.890625 -6.125 C 5.328125 -6.125 5.738281 -6.039062 6.125 -5.875 C 6.507812 -5.707031 6.84375 -5.484375 7.125 -5.203125 C 7.40625 -4.921875 7.628906 -4.585938 7.796875 -4.203125 C 7.960938 -3.828125 8.046875 -3.429688 8.046875 -3.015625 C 8.046875 -2.578125 7.960938 -2.164062 7.796875 -1.78125 C 7.628906 -1.40625 7.40625 -1.078125 7.125 -0.796875 C 6.84375 -0.523438 6.507812 -0.304688 6.125 -0.140625 C 5.738281 0.0234375 5.328125 0.109375 4.890625 0.109375 C 4.578125 0.109375 4.273438 0.0664062 3.984375 -0.015625 C 3.703125 -0.0976562 3.453125 -0.207031 3.234375 -0.34375 C 3.015625 -0.488281 2.828125 -0.648438 2.671875 -0.828125 C 2.523438 -1.015625 2.414062 -1.195312 2.34375 -1.375 C 2.34375 -1.257812 2.34375 -1.140625 2.34375 -1.015625 C 2.351562 -0.890625 2.359375 -0.765625 2.359375 -0.640625 L 2.359375 0 L 0.5625 0 Z M 7.375 -3.015625 C 7.375 -3.347656 7.304688 -3.664062 7.171875 -3.96875 C 7.046875 -4.28125 6.875 -4.546875 6.65625 -4.765625 C 6.445312 -4.992188 6.1875 -5.171875 5.875 -5.296875 C 5.570312 -5.421875 5.242188 -5.484375 4.890625 -5.484375 C 4.546875 -5.484375 4.222656 -5.421875 3.921875 -5.296875 C 3.617188 -5.171875 3.351562 -4.992188 3.125 -4.765625 C 2.90625 -4.546875 2.734375 -4.28125 2.609375 -3.96875 C 2.484375 -3.664062 2.421875 -3.347656 2.421875 -3.015625 C 2.421875 -2.671875 2.484375 -2.347656 2.609375 -2.046875 C 2.734375 -1.742188 2.90625 -1.476562 3.125 -1.25 C 3.351562 -1.03125 3.617188 -0.859375 3.921875 -0.734375 C 4.222656 -0.609375 4.546875 -0.546875 4.890625 -0.546875 C 5.242188 -0.546875 5.570312 -0.609375 5.875 -0.734375 C 6.1875 -0.859375 6.445312 -1.03125 6.65625 -1.25 C 6.875 -1.476562 7.046875 -1.742188 7.171875 -2.046875 C 7.304688 -2.347656 7.375 -2.671875 7.375 -3.015625 Z M 7.375 -3.015625 "/></g></g></g><g fill="#000000" fill-opacity="1"><g transform="translate(192.918427, 216.951286)"><g><path d="M 0.5625 -0.640625 L 1.8125 -0.640625 L 1.8125 -5.359375 L 0.65625 -5.359375 L 0.65625 -6 L 2.359375 -6 L 2.375 -5.4375 C 2.382812 -5.257812 2.394531 -5.09375 2.40625 -4.9375 C 2.414062 -4.789062 2.421875 -4.628906 2.421875 -4.453125 C 2.660156 -4.972656 3.015625 -5.378906 3.484375 -5.671875 C 3.960938 -5.960938 4.445312 -6.113281 4.9375 -6.125 L 4.890625 -5.46875 C 4.554688 -5.457031 4.238281 -5.394531 3.9375 -5.28125 C 3.644531 -5.175781 3.390625 -5.023438 3.171875 -4.828125 C 2.953125 -4.640625 2.78125 -4.410156 2.65625 -4.140625 C 2.53125 -3.878906 2.46875 -3.59375 2.46875 -3.28125 L 2.46875 -0.640625 L 3.640625 -0.640625 L 3.640625 0 L 0.5625 0 Z M 0.5625 -0.640625 "/></g></g></g><g fill="#000000" fill-opacity="1"><g transform="translate(198.421101, 216.951286)"><g><path d="M 0.5625 -3.015625 C 0.5625 -3.429688 0.644531 -3.828125 0.8125 -4.203125 C 0.976562 -4.585938 1.203125 -4.921875 1.484375 -5.203125 C 1.765625 -5.484375 2.097656 -5.707031 2.484375 -5.875 C 2.867188 -6.039062 3.28125 -6.125 3.71875 -6.125 C 4.019531 -6.125 4.3125 -6.078125 4.59375 -5.984375 C 4.875 -5.898438 5.125 -5.785156 5.34375 -5.640625 C 5.570312 -5.492188 5.757812 -5.328125 5.90625 -5.140625 C 6.0625 -4.953125 6.175781 -4.769531 6.25 -4.59375 C 6.25 -4.820312 6.253906 -5.050781 6.265625 -5.28125 C 6.285156 -5.519531 6.300781 -5.757812 6.3125 -6 L 6.859375 -6 L 6.859375 -0.640625 L 8.046875 -0.640625 L 8.046875 0 L 6.25 0 L 6.25 -0.640625 C 6.25 -0.765625 6.25 -0.890625 6.25 -1.015625 C 6.257812 -1.140625 6.265625 -1.257812 6.265625 -1.375 C 6.191406 -1.195312 6.078125 -1.015625 5.921875 -0.828125 C 5.773438 -0.648438 5.59375 -0.488281 5.375 -0.34375 C 5.15625 -0.207031 4.898438 -0.0976562 4.609375 -0.015625 C 4.328125 0.0664062 4.03125 0.109375 3.71875 0.109375 C 3.28125 0.109375 2.867188 0.0234375 2.484375 -0.140625 C 2.097656 -0.304688 1.765625 -0.523438 1.484375 -0.796875 C 1.203125 -1.078125 0.976562 -1.40625 0.8125 -1.78125 C 0.644531 -2.164062 0.5625 -2.578125 0.5625 -3.015625 Z M 1.234375 -3.015625 C 1.234375 -2.671875 1.296875 -2.347656 1.421875 -2.046875 C 1.546875 -1.742188 1.71875 -1.476562 1.9375 -1.25 C 2.15625 -1.03125 2.414062 -0.859375 2.71875 -0.734375 C 3.03125 -0.609375 3.363281 -0.546875 3.71875 -0.546875 C 4.0625 -0.546875 4.382812 -0.609375 4.6875 -0.734375 C 4.988281 -0.859375 5.25 -1.03125 5.46875 -1.25 C 5.695312 -1.476562 5.875 -1.742188 6 -2.046875 C 6.125 -2.347656 6.1875 -2.671875 6.1875 -3.015625 C 6.1875 -3.347656 6.125 -3.664062 6 -3.96875 C 5.875 -4.28125 5.695312 -4.546875 5.46875 -4.765625 C 5.25 -4.992188 4.988281 -5.171875 4.6875 -5.296875 C 4.382812 -5.421875 4.0625 -5.484375 3.71875 -5.484375 C 3.363281 -5.484375 3.03125 -5.421875 2.71875 -5.296875 C 2.414062 -5.171875 2.15625 -4.992188 1.9375 -4.765625 C 1.71875 -4.546875 1.546875 -4.28125 1.421875 -3.96875 C 1.296875 -3.664062 1.234375 -3.347656 1.234375 -3.015625 Z M 1.234375 -3.015625 "/></g></g></g><g fill="#000000" fill-opacity="1"><g transform="translate(207.027035, 216.951286)"><g><path d="M 5.078125 -0.640625 L 6.3125 -0.640625 L 6.3125 -4.15625 C 6.289062 -4.5 6.164062 -4.796875 5.9375 -5.046875 C 5.707031 -5.304688 5.367188 -5.445312 4.921875 -5.46875 C 4.609375 -5.46875 4.300781 -5.410156 4 -5.296875 C 3.695312 -5.191406 3.429688 -5.039062 3.203125 -4.84375 C 2.972656 -4.65625 2.789062 -4.425781 2.65625 -4.15625 C 2.53125 -3.894531 2.46875 -3.601562 2.46875 -3.28125 L 2.46875 -0.640625 L 3.640625 -0.640625 L 3.640625 0 L 0.5625 0 L 0.5625 -0.640625 L 1.8125 -0.640625 L 1.8125 -5.359375 L 0.65625 -5.359375 L 0.65625 -6 L 2.359375 -6 L 2.375 -5.4375 C 2.382812 -5.257812 2.394531 -5.09375 2.40625 -4.9375 C 2.414062 -4.789062 2.421875 -4.628906 2.421875 -4.453125 C 2.628906 -4.953125 2.96875 -5.351562 3.4375 -5.65625 C 3.914062 -5.96875 4.457031 -6.125 5.0625 -6.125 C 5.644531 -6.125 6.101562 -5.957031 6.4375 -5.625 C 6.78125 -5.300781 6.960938 -4.875 6.984375 -4.34375 L 6.984375 -0.640625 L 8.15625 -0.640625 L 8.15625 0 L 5.078125 0 Z M 5.078125 -0.640625 "/></g></g></g><g fill="#000000" fill-opacity="1"><g transform="translate(215.744937, 216.951286)"><g><path d="M 6.25 -0.640625 C 6.25 -0.765625 6.25 -0.890625 6.25 -1.015625 C 6.257812 -1.140625 6.265625 -1.257812 6.265625 -1.375 C 6.191406 -1.195312 6.078125 -1.015625 5.921875 -0.828125 C 5.773438 -0.648438 5.59375 -0.488281 5.375 -0.34375 C 5.15625 -0.207031 4.898438 -0.0976562 4.609375 -0.015625 C 4.328125 0.0664062 4.03125 0.109375 3.71875 0.109375 C 3.28125 0.109375 2.867188 0.0234375 2.484375 -0.140625 C 2.097656 -0.304688 1.765625 -0.523438 1.484375 -0.796875 C 1.203125 -1.078125 0.976562 -1.40625 0.8125 -1.78125 C 0.644531 -2.164062 0.5625 -2.578125 0.5625 -3.015625 C 0.5625 -3.429688 0.644531 -3.828125 0.8125 -4.203125 C 0.976562 -4.585938 1.203125 -4.921875 1.484375 -5.203125 C 1.765625 -5.484375 2.097656 -5.707031 2.484375 -5.875 C 2.867188 -6.039062 3.28125 -6.125 3.71875 -6.125 C 4.019531 -6.125 4.304688 -6.082031 4.578125 -6 C 4.847656 -5.914062 5.09375 -5.800781 5.3125 -5.65625 C 5.539062 -5.507812 5.734375 -5.34375 5.890625 -5.15625 C 6.054688 -4.976562 6.175781 -4.796875 6.25 -4.609375 C 6.238281 -4.828125 6.226562 -5.046875 6.21875 -5.265625 C 6.207031 -5.492188 6.195312 -5.722656 6.1875 -5.953125 L 6.1875 -11.359375 L 5.078125 -11.359375 L 5.078125 -12 L 6.859375 -12 L 6.859375 -0.640625 L 8.046875 -0.640625 L 8.046875 0 L 6.25 0 Z M 1.234375 -3.015625 C 1.234375 -2.671875 1.296875 -2.347656 1.421875 -2.046875 C 1.546875 -1.742188 1.71875 -1.476562 1.9375 -1.25 C 2.15625 -1.03125 2.414062 -0.859375 2.71875 -0.734375 C 3.03125 -0.609375 3.363281 -0.546875 3.71875 -0.546875 C 4.0625 -0.546875 4.382812 -0.609375 4.6875 -0.734375 C 4.988281 -0.859375 5.25 -1.03125 5.46875 -1.25 C 5.695312 -1.476562 5.875 -1.742188 6 -2.046875 C 6.125 -2.347656 6.1875 -2.671875 6.1875 -3.015625 C 6.1875 -3.347656 6.125 -3.664062 6 -3.96875 C 5.875 -4.28125 5.695312 -4.546875 5.46875 -4.765625 C 5.25 -4.992188 4.988281 -5.171875 4.6875 -5.296875 C 4.382812 -5.421875 4.0625 -5.484375 3.71875 -5.484375 C 3.363281 -5.484375 3.03125 -5.421875 2.71875 -5.296875 C 2.414062 -5.171875 2.15625 -4.992188 1.9375 -4.765625 C 1.71875 -4.546875 1.546875 -4.28125 1.421875 -3.96875 C 1.296875 -3.664062 1.234375 -3.347656 1.234375 -3.015625 Z M 1.234375 -3.015625 "/></g></g></g><path stroke-linecap="round" transform="matrix(0.754159, 0, 0, 0.75, 76.275513, 213.201286)" fill="none" stroke-linejoin="miter" d="M 0.49967 0.002452 L 67.140549 0.002452 " stroke="#000000" stroke-width="1" stroke-opacity="1" stroke-miterlimit="4"/><path stroke-linecap="round" transform="matrix(0.754159, 0, 0, 0.75, 246.68366, 213.201286)" fill="none" stroke-linejoin="miter" d="M 0.502335 0.002452 L 67.138034 0.002452 " stroke="#000000" stroke-width="1" stroke-opacity="1" stroke-miterlimit="4"/></svg>